<svg width="554" height="289" viewBox="0 0 554 289" fill="none" xmlns="http://www.w3.org/2000/svg">
<g filter="url(#filter0_d_20_170)">
<rect x="30" y="26" width="494" height="229" rx="12" fill="url(#paint0_linear_20_170)"/>
</g>
<mask id="mask0_20_170" style="mask-type:alpha" maskUnits="userSpaceOnUse" x="30" y="26" width="494" height="229">
<rect x="30" y="26" width="494" height="229" rx="12" fill="white"/>
</mask>
<g mask="url(#mask0_20_170)">
<ellipse opacity="0.1" cx="79.3998" cy="314.739" rx="251.705" ry="140.636" fill="#252B42"/>
<ellipse opacity="0.08" cx="485.578" cy="-10.0924" rx="251.705" ry="140.636" fill="black"/>
<path d="M82.8646 206.011C81.8547 206.007 80.9917 205.74 80.2758 205.212C79.5599 204.683 79.0123 203.914 78.6331 202.904C78.2538 201.894 78.0642 200.678 78.0642 199.254C78.0642 197.835 78.2538 196.623 78.6331 195.617C79.0166 194.612 79.5663 193.845 80.2822 193.316C81.0024 192.788 81.8632 192.524 82.8646 192.524C83.866 192.524 84.7247 192.79 85.4406 193.323C86.1565 193.851 86.7041 194.618 87.0834 195.624C87.4669 196.625 87.6586 197.835 87.6586 199.254C87.6586 200.682 87.469 201.901 87.0898 202.911C86.7105 203.916 86.1629 204.686 85.447 205.218C84.7311 205.747 83.8703 206.011 82.8646 206.011ZM82.8646 204.304C83.751 204.304 84.4434 203.872 84.942 203.007C85.4449 202.141 85.6963 200.891 85.6963 199.254C85.6963 198.168 85.5812 197.249 85.3511 196.499C85.1253 195.745 84.7993 195.174 84.3731 194.786C83.9513 194.394 83.4484 194.198 82.8646 194.198C81.9825 194.198 81.29 194.633 80.7872 195.502C80.2844 196.372 80.0308 197.622 80.0265 199.254C80.0265 200.345 80.1395 201.268 80.3653 202.022C80.5954 202.772 80.9214 203.341 81.3433 203.729C81.7652 204.112 82.2723 204.304 82.8646 204.304ZM97.7309 203.62L90.3801 196.269L91.5882 195.061L98.939 202.412L97.7309 203.62ZM91.5882 203.62L90.3801 202.412L97.7309 195.061L98.939 196.269L91.5882 203.62ZM106.267 192.524C106.851 192.528 107.427 192.634 107.993 192.843C108.56 193.052 109.071 193.393 109.527 193.866C109.988 194.339 110.354 194.978 110.627 195.784C110.904 196.585 111.044 197.582 111.049 198.775C111.049 199.921 110.934 200.942 110.704 201.837C110.473 202.727 110.143 203.48 109.713 204.093C109.287 204.707 108.769 205.173 108.16 205.493C107.55 205.813 106.864 205.972 106.101 205.972C105.321 205.972 104.629 205.819 104.024 205.512C103.419 205.205 102.927 204.781 102.547 204.24C102.168 203.695 101.932 203.068 101.838 202.361H103.787C103.915 202.923 104.175 203.379 104.567 203.729C104.964 204.074 105.475 204.247 106.101 204.247C107.06 204.247 107.808 203.829 108.345 202.994C108.882 202.154 109.152 200.982 109.157 199.478H109.054C108.833 199.845 108.556 200.16 108.223 200.424C107.895 200.688 107.527 200.893 107.118 201.038C106.709 201.183 106.272 201.255 105.807 201.255C105.053 201.255 104.367 201.07 103.749 200.699C103.131 200.328 102.639 199.819 102.272 199.171C101.906 198.524 101.723 197.784 101.723 196.953C101.723 196.127 101.91 195.377 102.285 194.703C102.665 194.03 103.193 193.497 103.87 193.105C104.552 192.709 105.351 192.515 106.267 192.524ZM106.274 194.186C105.775 194.186 105.326 194.309 104.925 194.556C104.529 194.799 104.216 195.129 103.986 195.547C103.755 195.96 103.64 196.421 103.64 196.928C103.64 197.435 103.751 197.895 103.973 198.308C104.199 198.717 104.505 199.043 104.893 199.286C105.285 199.525 105.733 199.644 106.236 199.644C106.611 199.644 106.96 199.572 107.284 199.427C107.608 199.282 107.891 199.082 108.134 198.826C108.377 198.566 108.566 198.272 108.703 197.944C108.839 197.616 108.907 197.271 108.907 196.909C108.907 196.427 108.792 195.98 108.562 195.566C108.336 195.153 108.025 194.82 107.629 194.569C107.233 194.313 106.781 194.186 106.274 194.186ZM117.711 192.524C118.295 192.528 118.87 192.634 119.437 192.843C120.003 193.052 120.515 193.393 120.971 193.866C121.431 194.339 121.797 194.978 122.07 195.784C122.347 196.585 122.488 197.582 122.492 198.775C122.492 199.921 122.377 200.942 122.147 201.837C121.917 202.727 121.587 203.48 121.156 204.093C120.73 204.707 120.212 205.173 119.603 205.493C118.994 205.813 118.307 205.972 117.545 205.972C116.765 205.972 116.072 205.819 115.467 205.512C114.862 205.205 114.37 204.781 113.991 204.24C113.611 203.695 113.375 203.068 113.281 202.361H115.231C115.359 202.923 115.619 203.379 116.011 203.729C116.407 204.074 116.918 204.247 117.545 204.247C118.503 204.247 119.251 203.829 119.788 202.994C120.325 202.154 120.596 200.982 120.6 199.478H120.498C120.276 199.845 119.999 200.16 119.667 200.424C119.339 200.688 118.97 200.893 118.561 201.038C118.152 201.183 117.715 201.255 117.251 201.255C116.496 201.255 115.81 201.07 115.192 200.699C114.574 200.328 114.082 199.819 113.716 199.171C113.349 198.524 113.166 197.784 113.166 196.953C113.166 196.127 113.354 195.377 113.729 194.703C114.108 194.03 114.636 193.497 115.314 193.105C115.996 192.709 116.795 192.515 117.711 192.524ZM117.717 194.186C117.219 194.186 116.769 194.309 116.369 194.556C115.972 194.799 115.659 195.129 115.429 195.547C115.199 195.96 115.084 196.421 115.084 196.928C115.084 197.435 115.195 197.895 115.416 198.308C115.642 198.717 115.949 199.043 116.337 199.286C116.729 199.525 117.176 199.644 117.679 199.644C118.054 199.644 118.403 199.572 118.727 199.427C119.051 199.282 119.334 199.082 119.577 198.826C119.82 198.566 120.01 198.272 120.146 197.944C120.283 197.616 120.351 197.271 120.351 196.909C120.351 196.427 120.236 195.98 120.006 195.566C119.78 195.153 119.469 194.82 119.072 194.569C118.676 194.313 118.224 194.186 117.717 194.186ZM129.359 205.972C128.481 205.972 127.697 205.821 127.006 205.519C126.32 205.216 125.777 204.796 125.377 204.259C124.98 203.718 124.767 203.092 124.737 202.38H126.744C126.77 202.768 126.9 203.105 127.134 203.39C127.373 203.671 127.684 203.889 128.068 204.042C128.451 204.195 128.877 204.272 129.346 204.272C129.862 204.272 130.318 204.183 130.714 204.004C131.114 203.825 131.428 203.575 131.653 203.256C131.879 202.932 131.992 202.559 131.992 202.137C131.992 201.698 131.879 201.313 131.653 200.98C131.432 200.644 131.106 200.379 130.676 200.188C130.249 199.996 129.734 199.9 129.129 199.9H128.023V198.289H129.129C129.614 198.289 130.041 198.202 130.407 198.027C130.778 197.852 131.068 197.61 131.276 197.298C131.485 196.983 131.59 196.614 131.59 196.193C131.59 195.788 131.498 195.436 131.315 195.138C131.136 194.835 130.88 194.599 130.548 194.428C130.22 194.258 129.832 194.173 129.384 194.173C128.958 194.173 128.56 194.252 128.189 194.409C127.823 194.563 127.524 194.784 127.294 195.074C127.064 195.36 126.94 195.703 126.923 196.103H125.012C125.033 195.396 125.242 194.774 125.639 194.237C126.039 193.7 126.568 193.28 127.224 192.977C127.88 192.675 128.609 192.524 129.41 192.524C130.249 192.524 130.974 192.688 131.583 193.016C132.197 193.34 132.67 193.772 133.002 194.313C133.339 194.855 133.505 195.447 133.501 196.09C133.505 196.823 133.301 197.445 132.887 197.957C132.478 198.468 131.933 198.811 131.251 198.986V199.088C132.12 199.22 132.793 199.565 133.271 200.124C133.752 200.682 133.991 201.374 133.987 202.201C133.991 202.921 133.791 203.567 133.386 204.138C132.985 204.709 132.438 205.159 131.743 205.487C131.048 205.811 130.254 205.972 129.359 205.972ZM140.826 205.972C139.91 205.972 139.1 205.815 138.397 205.499C137.698 205.184 137.151 204.749 136.754 204.195C136.358 203.641 136.162 203.011 136.166 202.303C136.162 201.749 136.275 201.24 136.505 200.776C136.739 200.307 137.057 199.917 137.457 199.606C137.858 199.291 138.305 199.09 138.8 199.005V198.928C138.148 198.771 137.626 198.421 137.234 197.88C136.842 197.339 136.648 196.717 136.652 196.014C136.648 195.345 136.825 194.748 137.183 194.224C137.545 193.695 138.041 193.28 138.672 192.977C139.303 192.675 140.021 192.524 140.826 192.524C141.623 192.524 142.335 192.677 142.961 192.984C143.592 193.286 144.088 193.702 144.45 194.23C144.813 194.754 144.996 195.349 145 196.014C144.996 196.717 144.796 197.339 144.399 197.88C144.003 198.421 143.487 198.771 142.852 198.928V199.005C143.342 199.09 143.783 199.291 144.176 199.606C144.572 199.917 144.887 200.307 145.122 200.776C145.36 201.24 145.482 201.749 145.486 202.303C145.482 203.011 145.281 203.641 144.885 204.195C144.489 204.749 143.939 205.184 143.236 205.499C142.537 205.815 141.734 205.972 140.826 205.972ZM140.826 204.355C141.367 204.355 141.836 204.266 142.232 204.087C142.629 203.904 142.935 203.65 143.153 203.326C143.37 202.998 143.481 202.614 143.485 202.176C143.481 201.72 143.362 201.317 143.127 200.967C142.897 200.618 142.584 200.343 142.188 200.143C141.791 199.943 141.337 199.842 140.826 199.842C140.31 199.842 139.852 199.943 139.452 200.143C139.051 200.343 138.736 200.618 138.506 200.967C138.276 201.317 138.163 201.72 138.167 202.176C138.163 202.614 138.267 202.998 138.48 203.326C138.698 203.65 139.006 203.904 139.407 204.087C139.808 204.266 140.281 204.355 140.826 204.355ZM140.826 198.264C141.261 198.264 141.646 198.176 141.983 198.002C142.32 197.827 142.584 197.584 142.776 197.273C142.972 196.962 143.072 196.597 143.076 196.18C143.072 195.771 142.974 195.413 142.782 195.106C142.595 194.799 142.332 194.563 141.996 194.396C141.659 194.226 141.269 194.141 140.826 194.141C140.374 194.141 139.978 194.226 139.637 194.396C139.301 194.563 139.038 194.799 138.851 195.106C138.663 195.413 138.572 195.771 138.576 196.18C138.572 196.597 138.666 196.962 138.857 197.273C139.049 197.584 139.313 197.827 139.65 198.002C139.991 198.176 140.383 198.264 140.826 198.264ZM147.501 203.237V201.639L153.158 192.703H154.417V195.055H153.618L149.572 201.46V201.562H157.326V203.237H147.501ZM153.708 205.793V202.751L153.72 202.022V192.703H155.593V205.793H153.708ZM160.346 205.915C159.996 205.915 159.696 205.791 159.445 205.544C159.193 205.293 159.067 204.99 159.067 204.637C159.067 204.287 159.193 203.989 159.445 203.742C159.696 203.49 159.996 203.364 160.346 203.364C160.695 203.364 160.996 203.49 161.247 203.742C161.498 203.989 161.624 204.287 161.624 204.637C161.624 204.871 161.565 205.086 161.445 205.282C161.33 205.474 161.177 205.627 160.985 205.742C160.793 205.857 160.58 205.915 160.346 205.915ZM165.443 205.915C165.094 205.915 164.794 205.791 164.542 205.544C164.291 205.293 164.165 204.99 164.165 204.637C164.165 204.287 164.291 203.989 164.542 203.742C164.794 203.49 165.094 203.364 165.443 203.364C165.793 203.364 166.093 203.49 166.345 203.742C166.596 203.989 166.722 204.287 166.722 204.637C166.722 204.871 166.662 205.086 166.543 205.282C166.428 205.474 166.274 205.627 166.083 205.742C165.891 205.857 165.678 205.915 165.443 205.915ZM170.541 205.915C170.192 205.915 169.891 205.791 169.64 205.544C169.388 205.293 169.263 204.99 169.263 204.637C169.263 204.287 169.388 203.989 169.64 203.742C169.891 203.49 170.192 203.364 170.541 203.364C170.891 203.364 171.191 203.49 171.442 203.742C171.694 203.989 171.82 204.287 171.82 204.637C171.82 204.871 171.76 205.086 171.641 205.282C171.525 205.474 171.372 205.627 171.18 205.742C170.989 205.857 170.775 205.915 170.541 205.915ZM175.639 205.915C175.289 205.915 174.989 205.791 174.737 205.544C174.486 205.293 174.36 204.99 174.36 204.637C174.36 204.287 174.486 203.989 174.737 203.742C174.989 203.49 175.289 203.364 175.639 203.364C175.988 203.364 176.289 203.49 176.54 203.742C176.791 203.989 176.917 204.287 176.917 204.637C176.917 204.871 176.858 205.086 176.738 205.282C176.623 205.474 176.47 205.627 176.278 205.742C176.086 205.857 175.873 205.915 175.639 205.915ZM180.736 205.915C180.387 205.915 180.087 205.791 179.835 205.544C179.584 205.293 179.458 204.99 179.458 204.637C179.458 204.287 179.584 203.989 179.835 203.742C180.087 203.49 180.387 203.364 180.736 203.364C181.086 203.364 181.386 203.49 181.638 203.742C181.889 203.989 182.015 204.287 182.015 204.637C182.015 204.871 181.955 205.086 181.836 205.282C181.721 205.474 181.567 205.627 181.376 205.742C181.184 205.857 180.971 205.915 180.736 205.915ZM185.834 205.915C185.485 205.915 185.184 205.791 184.933 205.544C184.681 205.293 184.556 204.99 184.556 204.637C184.556 204.287 184.681 203.989 184.933 203.742C185.184 203.49 185.485 203.364 185.834 203.364C186.184 203.364 186.484 203.49 186.735 203.742C186.987 203.989 187.112 204.287 187.112 204.637C187.112 204.871 187.053 205.086 186.934 205.282C186.818 205.474 186.665 205.627 186.473 205.742C186.282 205.857 186.068 205.915 185.834 205.915ZM189.754 205.793L195.468 194.492V194.396H188.859V192.703H197.514V194.454L191.819 205.793H189.754ZM203.896 205.972C202.98 205.972 202.171 205.815 201.467 205.499C200.769 205.184 200.221 204.749 199.825 204.195C199.428 203.641 199.232 203.011 199.237 202.303C199.232 201.749 199.345 201.24 199.575 200.776C199.81 200.307 200.127 199.917 200.528 199.606C200.928 199.291 201.376 199.09 201.87 199.005V198.928C201.218 198.771 200.696 198.421 200.304 197.88C199.912 197.339 199.718 196.717 199.722 196.014C199.718 195.345 199.895 194.748 200.253 194.224C200.615 193.695 201.112 193.28 201.742 192.977C202.373 192.675 203.091 192.524 203.896 192.524C204.693 192.524 205.405 192.677 206.031 192.984C206.662 193.286 207.158 193.702 207.521 194.23C207.883 194.754 208.066 195.349 208.07 196.014C208.066 196.717 207.866 197.339 207.47 197.88C207.073 198.421 206.558 198.771 205.923 198.928V199.005C206.413 199.09 206.854 199.291 207.246 199.606C207.642 199.917 207.957 200.307 208.192 200.776C208.43 201.24 208.552 201.749 208.556 202.303C208.552 203.011 208.352 203.641 207.955 204.195C207.559 204.749 207.009 205.184 206.306 205.499C205.607 205.815 204.804 205.972 203.896 205.972ZM203.896 204.355C204.438 204.355 204.906 204.266 205.303 204.087C205.699 203.904 206.006 203.65 206.223 203.326C206.44 202.998 206.551 202.614 206.555 202.176C206.551 201.72 206.432 201.317 206.198 200.967C205.967 200.618 205.654 200.343 205.258 200.143C204.862 199.943 204.408 199.842 203.896 199.842C203.381 199.842 202.923 199.943 202.522 200.143C202.122 200.343 201.806 200.618 201.576 200.967C201.346 201.317 201.233 201.72 201.237 202.176C201.233 202.614 201.337 202.998 201.551 203.326C201.768 203.65 202.077 203.904 202.477 204.087C202.878 204.266 203.351 204.355 203.896 204.355ZM203.896 198.264C204.331 198.264 204.717 198.176 205.053 198.002C205.39 197.827 205.654 197.584 205.846 197.273C206.042 196.962 206.142 196.597 206.146 196.18C206.142 195.771 206.044 195.413 205.852 195.106C205.665 194.799 205.403 194.563 205.066 194.396C204.729 194.226 204.34 194.141 203.896 194.141C203.445 194.141 203.048 194.226 202.707 194.396C202.371 194.563 202.109 194.799 201.921 195.106C201.734 195.413 201.642 195.771 201.646 196.18C201.642 196.597 201.736 196.962 201.928 197.273C202.119 197.584 202.384 197.827 202.72 198.002C203.061 198.176 203.453 198.264 203.896 198.264ZM215.199 192.524C215.783 192.528 216.358 192.634 216.925 192.843C217.492 193.052 218.003 193.393 218.459 193.866C218.919 194.339 219.286 194.978 219.559 195.784C219.835 196.585 219.976 197.582 219.98 198.775C219.98 199.921 219.865 200.942 219.635 201.837C219.405 202.727 219.075 203.48 218.644 204.093C218.218 204.707 217.701 205.173 217.091 205.493C216.482 205.813 215.796 205.972 215.033 205.972C214.253 205.972 213.561 205.819 212.956 205.512C212.35 205.205 211.858 204.781 211.479 204.24C211.1 203.695 210.863 203.068 210.769 202.361H212.719C212.847 202.923 213.107 203.379 213.499 203.729C213.895 204.074 214.407 204.247 215.033 204.247C215.992 204.247 216.74 203.829 217.277 202.994C217.813 202.154 218.084 200.982 218.088 199.478H217.986C217.764 199.845 217.487 200.16 217.155 200.424C216.827 200.688 216.458 200.893 216.049 201.038C215.64 201.183 215.203 201.255 214.739 201.255C213.985 201.255 213.299 201.07 212.681 200.699C212.063 200.328 211.571 199.819 211.204 199.171C210.838 198.524 210.654 197.784 210.654 196.953C210.654 196.127 210.842 195.377 211.217 194.703C211.596 194.03 212.125 193.497 212.802 193.105C213.484 192.709 214.283 192.515 215.199 192.524ZM215.206 194.186C214.707 194.186 214.257 194.309 213.857 194.556C213.46 194.799 213.147 195.129 212.917 195.547C212.687 195.96 212.572 196.421 212.572 196.928C212.572 197.435 212.683 197.895 212.904 198.308C213.13 198.717 213.437 199.043 213.825 199.286C214.217 199.525 214.664 199.644 215.167 199.644C215.542 199.644 215.892 199.572 216.215 199.427C216.539 199.282 216.823 199.082 217.066 198.826C217.309 198.566 217.498 198.272 217.634 197.944C217.771 197.616 217.839 197.271 217.839 196.909C217.839 196.427 217.724 195.98 217.494 195.566C217.268 195.153 216.957 194.82 216.561 194.569C216.164 194.313 215.713 194.186 215.206 194.186Z" fill="white"/>
<path d="M85.2907 110.306V84.8518H86.9214V110.306H85.2907ZM90.3916 92.7467C90.2855 91.8054 89.848 91.0762 89.0791 90.5592C88.3102 90.0355 87.3424 89.7736 86.1757 89.7736C85.3405 89.7736 84.6179 89.9062 84.0081 90.1714C83.3982 90.4299 82.9243 90.7879 82.5862 91.2452C82.2548 91.696 82.089 92.2097 82.089 92.7864C82.089 93.2703 82.2017 93.6879 82.4271 94.0393C82.6591 94.3906 82.9607 94.6856 83.3319 94.9242C83.7098 95.1562 84.1141 95.3518 84.545 95.5109C84.9759 95.6633 85.3902 95.7893 85.7879 95.8887L87.7765 96.4058C88.4262 96.5648 89.0924 96.7803 89.7751 97.0521C90.4579 97.3238 91.0909 97.6818 91.6743 98.1259C92.2576 98.57 92.7282 99.1202 93.0862 99.7765C93.4508 100.433 93.6331 101.218 93.6331 102.133C93.6331 103.286 93.3348 104.311 92.7382 105.205C92.1482 106.1 91.2898 106.806 90.1629 107.323C89.0426 107.84 87.6871 108.099 86.0961 108.099C84.5715 108.099 83.2524 107.857 82.1388 107.373C81.0251 106.889 80.1534 106.203 79.5237 105.315C78.894 104.42 78.546 103.359 78.4797 102.133H81.5621C81.6217 102.869 81.8604 103.482 82.278 103.973C82.7022 104.456 83.2425 104.818 83.8987 105.056C84.5616 105.288 85.2874 105.404 86.0763 105.404C86.9446 105.404 87.7169 105.268 88.393 104.997C89.0758 104.718 89.6127 104.334 90.0038 103.843C90.3949 103.346 90.5905 102.766 90.5905 102.103C90.5905 101.5 90.4181 101.006 90.0734 100.622C89.7354 100.237 89.2747 99.919 88.6913 99.6671C88.1146 99.4152 87.4617 99.1932 86.7325 99.0009L84.3263 98.3447C82.6956 97.9005 81.403 97.2476 80.4484 96.3859C79.5005 95.5241 79.0265 94.384 79.0265 92.9654C79.0265 91.7921 79.3447 90.768 79.9811 89.893C80.6175 89.018 81.4792 88.3385 82.5663 87.8546C83.6534 87.3641 84.8798 87.1188 86.2453 87.1188C87.6241 87.1188 88.8405 87.3608 89.8944 87.8447C90.955 88.3286 91.7903 88.9948 92.4001 89.8432C93.01 90.6851 93.3282 91.6529 93.3547 92.7467H90.3916ZM96.5986 103.784V101.298L105.398 87.3972H107.357V91.0563H106.114L99.8202 101.019V101.178H111.881V103.784H96.5986ZM106.253 107.761V103.028L106.273 101.894V87.3972H109.187V107.761H106.253ZM118.489 104.977L118.339 106.061C118.24 106.856 118.071 107.685 117.832 108.546C117.6 109.415 117.358 110.22 117.106 110.963C116.861 111.705 116.659 112.295 116.5 112.732H114.392C114.478 112.321 114.597 111.765 114.75 111.062C114.902 110.366 115.052 109.587 115.197 108.725C115.343 107.864 115.453 106.985 115.525 106.09L115.625 104.977H118.489ZM129.041 108.039C127.795 108.039 126.674 107.801 125.68 107.323C124.692 106.839 123.903 106.177 123.313 105.335C122.724 104.493 122.409 103.532 122.369 102.451H125.352C125.425 103.326 125.813 104.045 126.515 104.609C127.218 105.172 128.06 105.454 129.041 105.454C129.823 105.454 130.516 105.275 131.119 104.917C131.729 104.553 132.206 104.052 132.551 103.416C132.902 102.779 133.078 102.053 133.078 101.238C133.078 100.41 132.899 99.6704 132.541 99.0208C132.183 98.3712 131.689 97.8608 131.059 97.4896C130.436 97.1183 129.72 96.9294 128.911 96.9228C128.295 96.9228 127.675 97.0289 127.052 97.241C126.429 97.4531 125.925 97.7315 125.541 98.0762L122.727 97.6586L123.87 87.3972H135.066V90.0322H126.426L125.779 95.7296H125.899C126.296 95.3451 126.823 95.0236 127.48 94.7651C128.143 94.5066 128.852 94.3773 129.608 94.3773C130.847 94.3773 131.951 94.6723 132.919 95.2623C133.893 95.8522 134.659 96.6576 135.215 97.6785C135.779 98.6927 136.057 99.8593 136.051 101.178C136.057 102.498 135.759 103.674 135.156 104.708C134.559 105.742 133.731 106.558 132.67 107.154C131.616 107.744 130.406 108.039 129.041 108.039ZM140.369 107.761L149.258 90.1813V90.0322H138.976V87.3972H152.44V90.1217L143.58 107.761H140.369ZM162.549 108.099C160.978 108.092 159.636 107.678 158.522 106.856C157.409 106.034 156.557 104.838 155.967 103.267C155.377 101.696 155.082 99.803 155.082 97.589C155.082 95.3816 155.377 93.4957 155.967 91.9313C156.563 90.3669 157.419 89.1737 158.532 88.3518C159.652 87.5298 160.992 87.1188 162.549 87.1188C164.107 87.1188 165.443 87.5331 166.556 88.3617C167.67 89.1837 168.522 90.3769 169.112 91.9413C169.708 93.499 170.007 95.3816 170.007 97.589C170.007 99.8096 169.712 101.705 169.122 103.276C168.532 104.841 167.68 106.037 166.566 106.866C165.453 107.688 164.114 108.099 162.549 108.099ZM162.549 105.444C163.928 105.444 165.005 104.771 165.781 103.426C166.563 102.08 166.954 100.134 166.954 97.589C166.954 95.8986 166.775 94.4701 166.417 93.3035C166.066 92.1302 165.559 91.2419 164.896 90.6387C164.24 90.0289 163.457 89.7239 162.549 89.7239C161.177 89.7239 160.1 90.4001 159.318 91.7523C158.536 93.1046 158.141 95.0502 158.134 97.589C158.134 99.286 158.31 100.721 158.661 101.894C159.019 103.061 159.527 103.946 160.183 104.549C160.839 105.146 161.628 105.444 162.549 105.444ZM176.703 104.977L176.554 106.061C176.455 106.856 176.286 107.685 176.047 108.546C175.815 109.415 175.573 110.22 175.321 110.963C175.076 111.705 174.874 112.295 174.715 112.732H172.607C172.693 112.321 172.812 111.765 172.965 111.062C173.117 110.366 173.266 109.587 173.412 108.725C173.558 107.864 173.667 106.985 173.74 106.09L173.84 104.977H176.703ZM187.059 108.039C185.634 108.039 184.375 107.794 183.281 107.303C182.194 106.813 181.342 106.137 180.725 105.275C180.109 104.413 179.804 103.432 179.811 102.332C179.804 101.47 179.98 100.678 180.338 99.9555C180.702 99.2263 181.196 98.6198 181.819 98.1359C182.442 97.6453 183.138 97.3338 183.907 97.2012V97.0819C182.893 96.8366 182.081 96.2931 181.471 95.4512C180.861 94.6093 180.56 93.6415 180.566 92.5478C180.56 91.5071 180.835 90.579 181.392 89.7637C181.955 88.9417 182.727 88.2954 183.708 87.8248C184.689 87.3541 185.806 87.1188 187.059 87.1188C188.299 87.1188 189.406 87.3575 190.38 87.8347C191.361 88.3054 192.134 88.9517 192.697 89.7736C193.26 90.589 193.545 91.5137 193.552 92.5478C193.545 93.6415 193.234 94.6093 192.617 95.4512C192.001 96.2931 191.199 96.8366 190.211 97.0819V97.2012C190.974 97.3338 191.66 97.6453 192.269 98.1359C192.886 98.6198 193.376 99.2263 193.741 99.9555C194.112 100.678 194.301 101.47 194.308 102.332C194.301 103.432 193.99 104.413 193.373 105.275C192.757 106.137 191.902 106.813 190.808 107.303C189.721 107.794 188.471 108.039 187.059 108.039ZM187.059 105.524C187.901 105.524 188.63 105.384 189.247 105.106C189.863 104.821 190.34 104.427 190.679 103.923C191.017 103.412 191.189 102.816 191.196 102.133C191.189 101.424 191.003 100.797 190.639 100.254C190.281 99.7102 189.794 99.2826 189.177 98.9711C188.561 98.6595 187.855 98.5038 187.059 98.5038C186.257 98.5038 185.545 98.6595 184.921 98.9711C184.298 99.2826 183.808 99.7102 183.45 100.254C183.092 100.797 182.916 101.424 182.923 102.133C182.916 102.816 183.079 103.412 183.41 103.923C183.748 104.427 184.229 104.821 184.852 105.106C185.475 105.384 186.211 105.524 187.059 105.524ZM187.059 96.0478C187.735 96.0478 188.335 95.9119 188.859 95.6401C189.383 95.3683 189.794 94.9905 190.092 94.5066C190.397 94.0227 190.553 93.4559 190.559 92.8063C190.553 92.17 190.4 91.6131 190.102 91.1359C189.81 90.6586 189.402 90.2907 188.879 90.0322C188.355 89.767 187.749 89.6344 187.059 89.6344C186.357 89.6344 185.74 89.767 185.21 90.0322C184.686 90.2907 184.278 90.6586 183.987 91.1359C183.695 91.6131 183.553 92.17 183.559 92.8063C183.553 93.4559 183.698 94.0227 183.997 94.5066C184.295 94.9905 184.706 95.3683 185.23 95.6401C185.76 95.9119 186.37 96.0478 187.059 96.0478ZM204.959 108.099C203.388 108.092 202.046 107.678 200.932 106.856C199.819 106.034 198.967 104.838 198.377 103.267C197.787 101.696 197.492 99.803 197.492 97.589C197.492 95.3816 197.787 93.4957 198.377 91.9313C198.974 90.3669 199.829 89.1737 200.942 88.3518C202.063 87.5298 203.402 87.1188 204.959 87.1188C206.517 87.1188 207.853 87.5331 208.967 88.3617C210.08 89.1837 210.932 90.3769 211.522 91.9413C212.119 93.499 212.417 95.3816 212.417 97.589C212.417 99.8096 212.122 101.705 211.532 103.276C210.942 104.841 210.09 106.037 208.976 106.866C207.863 107.688 206.524 108.099 204.959 108.099ZM204.959 105.444C206.338 105.444 207.415 104.771 208.191 103.426C208.973 102.08 209.364 100.134 209.364 97.589C209.364 95.8986 209.185 94.4701 208.827 93.3035C208.476 92.1302 207.969 91.2419 207.306 90.6387C206.65 90.0289 205.868 89.7239 204.959 89.7239C203.587 89.7239 202.51 90.4001 201.728 91.7523C200.946 93.1046 200.551 95.0502 200.545 97.589C200.545 99.286 200.72 100.721 201.072 101.894C201.43 103.061 201.937 103.946 202.593 104.549C203.249 105.146 204.038 105.444 204.959 105.444Z" fill="white"/>
<path d="M86.6231 60.5097H85.072C85.0123 60.1783 84.9013 59.8866 84.7389 59.6347C84.5765 59.3828 84.3776 59.169 84.1423 58.9934C83.907 58.8177 83.6435 58.6851 83.3518 58.5956C83.0635 58.5061 82.7569 58.4614 82.4321 58.4614C81.8454 58.4614 81.3201 58.6089 80.8561 58.9039C80.3954 59.1989 80.0308 59.6314 79.7623 60.2015C79.4972 60.7715 79.3646 61.4676 79.3646 62.2895C79.3646 63.1181 79.4972 63.8175 79.7623 64.3875C80.0308 64.9576 80.397 65.3885 80.8611 65.6801C81.3251 65.9718 81.8471 66.1176 82.4271 66.1176C82.7486 66.1176 83.0535 66.0746 83.3419 65.9884C83.6336 65.8989 83.897 65.768 84.1324 65.5956C84.3677 65.4233 84.5666 65.2128 84.729 64.9642C84.8947 64.7123 85.009 64.424 85.072 64.0992L86.6231 64.1042C86.5403 64.6046 86.3795 65.0653 86.1409 65.4863C85.9056 65.9039 85.6023 66.2651 85.2311 66.5701C84.8632 66.8717 84.4423 67.1053 83.9683 67.2711C83.4943 67.4368 82.9773 67.5196 82.4172 67.5196C81.5355 67.5196 80.75 67.3108 80.0606 66.8932C79.3712 66.4723 78.8277 65.8707 78.43 65.0885C78.0355 64.3063 77.8383 63.3733 77.8383 62.2895C77.8383 61.2024 78.0372 60.2694 78.4349 59.4905C78.8327 58.7083 79.3762 58.1084 80.0656 57.6908C80.755 57.2699 81.5389 57.0594 82.4172 57.0594C82.9574 57.0594 83.4612 57.1373 83.9285 57.2931C84.3992 57.4455 84.8218 57.6709 85.1963 57.9692C85.5708 58.2642 85.8807 58.6255 86.126 59.053C86.3712 59.4773 86.537 59.9628 86.6231 60.5097ZM93.1794 64.2135V59.7441H94.6709V67.3804H93.2093V66.058H93.1297C92.954 66.4657 92.6723 66.8054 92.2845 67.0772C91.9001 67.3456 91.4211 67.4799 90.8477 67.4799C90.3572 67.4799 89.923 67.3721 89.5452 67.1567C89.1707 66.938 88.8757 66.6148 88.6602 66.1873C88.4481 65.7597 88.3421 65.231 88.3421 64.6013V59.7441H89.8286V64.4223C89.8286 64.9427 89.9727 65.357 90.2611 65.6652C90.5494 65.9735 90.924 66.1276 91.3847 66.1276C91.6631 66.1276 91.9398 66.058 92.2149 65.9188C92.4933 65.7796 92.7237 65.5691 92.906 65.2874C93.0916 65.0057 93.1827 64.6477 93.1794 64.2135ZM96.6682 67.3804V59.7441H98.105V60.9571H98.1846C98.3238 60.5462 98.569 60.223 98.9204 59.9877C99.275 59.749 99.676 59.6297 100.123 59.6297C100.216 59.6297 100.326 59.633 100.452 59.6397C100.581 59.6463 100.682 59.6546 100.755 59.6645V61.0864C100.695 61.0698 100.589 61.0516 100.437 61.0317C100.284 61.0085 100.132 60.9969 99.9793 60.9969C99.628 60.9969 99.3148 61.0715 99.0397 61.2206C98.7679 61.3665 98.5525 61.5703 98.3934 61.8321C98.2343 62.0907 98.1547 62.3856 98.1547 62.7171V67.3804H96.6682ZM102.041 67.3804V59.7441H103.478V60.9571H103.558C103.697 60.5462 103.942 60.223 104.293 59.9877C104.648 59.749 105.049 59.6297 105.497 59.6297C105.589 59.6297 105.699 59.633 105.825 59.6397C105.954 59.6463 106.055 59.6546 106.128 59.6645V61.0864C106.068 61.0698 105.962 61.0516 105.81 61.0317C105.657 61.0085 105.505 60.9969 105.352 60.9969C105.001 60.9969 104.688 61.0715 104.413 61.2206C104.141 61.3665 103.926 61.5703 103.766 61.8321C103.607 62.0907 103.528 62.3856 103.528 62.7171V67.3804H102.041ZM110.432 67.5346C109.68 67.5346 109.032 67.3738 108.488 67.0523C107.948 66.7275 107.53 66.2718 107.235 65.6851C106.944 65.0952 106.798 64.4041 106.798 63.612C106.798 62.8298 106.944 62.1404 107.235 61.5438C107.53 60.9472 107.941 60.4815 108.468 60.1468C108.999 59.812 109.618 59.6446 110.328 59.6446C110.759 59.6446 111.176 59.7159 111.581 59.8584C111.985 60.0009 112.348 60.2247 112.669 60.5296C112.991 60.8345 113.244 61.2306 113.43 61.7178C113.616 62.2017 113.708 62.79 113.708 63.4827V64.0097H107.638V62.8961H112.252C112.252 62.505 112.172 62.1586 112.013 61.857C111.854 61.5521 111.63 61.3118 111.342 61.1361C111.057 60.9605 110.722 60.8726 110.338 60.8726C109.92 60.8726 109.555 60.9754 109.244 61.1809C108.936 61.383 108.697 61.6482 108.528 61.9763C108.362 62.3011 108.279 62.6541 108.279 63.0353V63.9053C108.279 64.4157 108.369 64.8499 108.548 65.2078C108.73 65.5658 108.984 65.8392 109.309 66.0282C109.633 66.2138 110.013 66.3066 110.447 66.3066C110.729 66.3066 110.986 66.2668 111.218 66.1873C111.45 66.1044 111.65 65.9818 111.819 65.8194C111.988 65.6569 112.117 65.4564 112.207 65.2178L113.614 65.4713C113.501 65.8856 113.299 66.2486 113.007 66.5601C112.719 66.8684 112.356 67.1087 111.919 67.281C111.484 67.45 110.989 67.5346 110.432 67.5346ZM116.844 62.8463V67.3804H115.358V59.7441H116.785V60.987H116.879C117.055 60.5826 117.33 60.2578 117.704 60.0125C118.082 59.7673 118.558 59.6446 119.131 59.6446C119.651 59.6446 120.107 59.754 120.498 59.9728C120.889 60.1882 121.193 60.5097 121.408 60.9373C121.624 61.3648 121.731 61.8935 121.731 62.5232V67.3804H120.245V62.7022C120.245 62.1487 120.101 61.7161 119.812 61.4046C119.524 61.0897 119.128 60.9323 118.624 60.9323C118.279 60.9323 117.973 61.0069 117.704 61.156C117.439 61.3051 117.229 61.5239 117.073 61.8123C116.92 62.0973 116.844 62.442 116.844 62.8463ZM127.29 59.7441V60.9373H123.118V59.7441H127.29ZM124.237 57.9145H125.723V65.1382C125.723 65.4266 125.767 65.6437 125.853 65.7895C125.939 65.932 126.05 66.0298 126.186 66.0828C126.325 66.1326 126.476 66.1574 126.638 66.1574C126.758 66.1574 126.862 66.1491 126.951 66.1326C127.041 66.116 127.111 66.1027 127.16 66.0928L127.429 67.3208C127.343 67.3539 127.22 67.3871 127.061 67.4202C126.902 67.4567 126.703 67.4765 126.464 67.4799C126.073 67.4865 125.709 67.4169 125.37 67.2711C125.032 67.1252 124.759 66.8998 124.55 66.5949C124.341 66.29 124.237 65.9072 124.237 65.4465V57.9145ZM132.758 67.3804V57.1986H136.487C137.209 57.1986 137.808 57.3179 138.282 57.5566C138.756 57.7919 139.11 58.1117 139.346 58.5161C139.581 58.9171 139.699 59.3695 139.699 59.8733C139.699 60.2976 139.621 60.6555 139.465 60.9472C139.309 61.2355 139.1 61.4676 138.839 61.6432C138.58 61.8156 138.295 61.9415 137.983 62.0211V62.1205C138.321 62.1371 138.651 62.2464 138.973 62.4486C139.298 62.6475 139.566 62.9309 139.778 63.2988C139.99 63.6667 140.096 64.1141 140.096 64.6411C140.096 65.1614 139.974 65.6288 139.728 66.0431C139.486 66.4541 139.112 66.7805 138.605 67.0225C138.098 67.2611 137.45 67.3804 136.661 67.3804H132.758ZM134.294 66.063H136.512C137.248 66.063 137.775 65.9204 138.093 65.6354C138.411 65.3504 138.57 64.9941 138.57 64.5665C138.57 64.245 138.489 63.95 138.326 63.6816C138.164 63.4131 137.932 63.1993 137.63 63.0402C137.332 62.8811 136.977 62.8016 136.566 62.8016H134.294V66.063ZM134.294 61.6034H136.353C136.697 61.6034 137.007 61.5372 137.282 61.4046C137.561 61.272 137.781 61.0864 137.944 60.8478C138.109 60.6058 138.192 60.3208 138.192 59.9926C138.192 59.5717 138.045 59.2187 137.75 58.9337C137.455 58.6487 137.002 58.5061 136.392 58.5061H134.294V61.6034ZM144.021 67.5495C143.537 67.5495 143.1 67.46 142.709 67.281C142.318 67.0987 142.008 66.8352 141.779 66.4905C141.554 66.1458 141.441 65.7232 141.441 65.2228C141.441 64.7919 141.524 64.4373 141.69 64.1588C141.855 63.8804 142.079 63.66 142.361 63.4976C142.643 63.3352 142.957 63.2126 143.305 63.1297C143.653 63.0469 144.008 62.9839 144.369 62.9408C144.827 62.8878 145.198 62.8447 145.483 62.8115C145.768 62.7751 145.975 62.7171 146.104 62.6375C146.234 62.558 146.298 62.4287 146.298 62.2498V62.2149C146.298 61.7808 146.176 61.4444 145.93 61.2057C145.689 60.9671 145.327 60.8478 144.847 60.8478C144.346 60.8478 143.952 60.9588 143.663 61.1809C143.378 61.3996 143.181 61.6432 143.072 61.9117L141.675 61.5935C141.841 61.1295 142.082 60.755 142.401 60.4699C142.722 60.1816 143.092 59.9728 143.509 59.8435C143.927 59.7109 144.366 59.6446 144.827 59.6446C145.132 59.6446 145.455 59.6811 145.796 59.754C146.141 59.8236 146.462 59.9529 146.761 60.1418C147.062 60.3307 147.309 60.6008 147.502 60.9522C147.694 61.3002 147.79 61.7526 147.79 62.3094V67.3804H146.338V66.3364H146.278C146.182 66.5286 146.038 66.7176 145.846 66.9032C145.654 67.0888 145.407 67.2429 145.105 67.3655C144.804 67.4881 144.442 67.5495 144.021 67.5495ZM144.345 66.3563C144.756 66.3563 145.107 66.2751 145.399 66.1127C145.694 65.9503 145.917 65.7381 146.07 65.4763C146.225 65.2112 146.303 64.9278 146.303 64.6262V63.6418C146.25 63.6948 146.148 63.7445 145.995 63.7909C145.846 63.834 145.675 63.8721 145.483 63.9053C145.291 63.9351 145.104 63.9633 144.921 63.9898C144.739 64.013 144.586 64.0329 144.464 64.0495C144.176 64.0859 143.912 64.1472 143.673 64.2334C143.438 64.3196 143.249 64.4439 143.107 64.6063C142.967 64.7654 142.898 64.9775 142.898 65.2426C142.898 65.6105 143.034 65.889 143.305 66.0779C143.577 66.2635 143.924 66.3563 144.345 66.3563ZM151.256 57.1986V67.3804H149.77V57.1986H151.256ZM155.478 67.5495C154.995 67.5495 154.557 67.46 154.166 67.281C153.775 67.0987 153.465 66.8352 153.236 66.4905C153.011 66.1458 152.898 65.7232 152.898 65.2228C152.898 64.7919 152.981 64.4373 153.147 64.1588C153.312 63.8804 153.536 63.66 153.818 63.4976C154.1 63.3352 154.415 63.2126 154.763 63.1297C155.111 63.0469 155.465 62.9839 155.826 62.9408C156.284 62.8878 156.655 62.8447 156.94 62.8115C157.225 62.7751 157.432 62.7171 157.562 62.6375C157.691 62.558 157.755 62.4287 157.755 62.2498V62.2149C157.755 61.7808 157.633 61.4444 157.388 61.2057C157.146 60.9671 156.784 60.8478 156.304 60.8478C155.803 60.8478 155.409 60.9588 155.12 61.1809C154.835 61.3996 154.638 61.6432 154.529 61.9117L153.132 61.5935C153.298 61.1295 153.54 60.755 153.858 60.4699C154.179 60.1816 154.549 59.9728 154.966 59.8435C155.384 59.7109 155.823 59.6446 156.284 59.6446C156.589 59.6446 156.912 59.6811 157.253 59.754C157.598 59.8236 157.919 59.9529 158.218 60.1418C158.519 60.3307 158.766 60.6008 158.959 60.9522C159.151 61.3002 159.247 61.7526 159.247 62.3094V67.3804H157.795V66.3364H157.736C157.639 66.5286 157.495 66.7176 157.303 66.9032C157.111 67.0888 156.864 67.2429 156.562 67.3655C156.261 67.4881 155.899 67.5495 155.478 67.5495ZM155.802 66.3563C156.213 66.3563 156.564 66.2751 156.856 66.1127C157.151 65.9503 157.374 65.7381 157.527 65.4763C157.682 65.2112 157.76 64.9278 157.76 64.6262V63.6418C157.707 63.6948 157.605 63.7445 157.452 63.7909C157.303 63.834 157.132 63.8721 156.94 63.9053C156.748 63.9351 156.561 63.9633 156.378 63.9898C156.196 64.013 156.044 64.0329 155.921 64.0495C155.633 64.0859 155.369 64.1472 155.13 64.2334C154.895 64.3196 154.706 64.4439 154.564 64.6063C154.424 64.7654 154.355 64.9775 154.355 65.2426C154.355 65.6105 154.491 65.889 154.763 66.0779C155.034 66.2635 155.381 66.3563 155.802 66.3563ZM162.713 62.8463V67.3804H161.227V59.7441H162.654V60.987H162.748C162.924 60.5826 163.199 60.2578 163.573 60.0125C163.951 59.7673 164.427 59.6446 165 59.6446C165.521 59.6446 165.976 59.754 166.367 59.9728C166.759 60.1882 167.062 60.5097 167.277 60.9373C167.493 61.3648 167.6 61.8935 167.6 62.5232V67.3804H166.114V62.7022C166.114 62.1487 165.97 61.7161 165.681 61.4046C165.393 61.0897 164.997 60.9323 164.493 60.9323C164.148 60.9323 163.842 61.0069 163.573 61.156C163.308 61.3051 163.098 61.5239 162.942 61.8123C162.79 62.0973 162.713 62.442 162.713 62.8463ZM172.811 67.5346C172.072 67.5346 171.435 67.3672 170.902 67.0324C170.371 66.6944 169.964 66.2287 169.679 65.6354C169.393 65.0421 169.251 64.3627 169.251 63.5971C169.251 62.8215 169.397 62.1371 169.688 61.5438C169.98 60.9472 170.391 60.4815 170.921 60.1468C171.452 59.812 172.076 59.6446 172.796 59.6446C173.376 59.6446 173.893 59.7524 174.347 59.9678C174.801 60.1799 175.167 60.4782 175.446 60.8627C175.727 61.2471 175.895 61.6962 175.948 62.21H174.501C174.421 61.852 174.239 61.5438 173.954 61.2853C173.672 61.0267 173.295 60.8975 172.821 60.8975C172.406 60.8975 172.043 61.0069 171.732 61.2256C171.424 61.441 171.183 61.7493 171.011 62.1503C170.839 62.548 170.752 63.0187 170.752 63.5623C170.752 64.1191 170.837 64.5997 171.006 65.004C171.175 65.4084 171.414 65.7216 171.722 65.9436C172.033 66.1657 172.4 66.2767 172.821 66.2767C173.102 66.2767 173.358 66.2254 173.586 66.1226C173.818 66.0166 174.012 65.8658 174.168 65.6702C174.327 65.4747 174.438 65.2393 174.501 64.9642H175.948C175.895 65.4581 175.734 65.8989 175.465 66.2867C175.197 66.6745 174.837 66.9794 174.387 67.2015C173.939 67.4235 173.414 67.5346 172.811 67.5346ZM180.829 67.5346C180.076 67.5346 179.428 67.3738 178.885 67.0523C178.344 66.7275 177.927 66.2718 177.632 65.6851C177.34 65.0952 177.194 64.4041 177.194 63.612C177.194 62.8298 177.34 62.1404 177.632 61.5438C177.927 60.9472 178.338 60.4815 178.865 60.1468C179.395 59.812 180.015 59.6446 180.724 59.6446C181.155 59.6446 181.573 59.7159 181.977 59.8584C182.381 60.0009 182.744 60.2247 183.066 60.5296C183.387 60.8345 183.641 61.2306 183.826 61.7178C184.012 62.2017 184.105 62.79 184.105 63.4827V64.0097H178.035V62.8961H182.648C182.648 62.505 182.569 62.1586 182.41 61.857C182.25 61.5521 182.027 61.3118 181.738 61.1361C181.453 60.9605 181.119 60.8726 180.734 60.8726C180.316 60.8726 179.952 60.9754 179.64 61.1809C179.332 61.383 179.093 61.6482 178.924 61.9763C178.759 62.3011 178.676 62.6541 178.676 63.0353V63.9053C178.676 64.4157 178.765 64.8499 178.944 65.2078C179.127 65.5658 179.38 65.8392 179.705 66.0282C180.03 66.2138 180.409 66.3066 180.843 66.3066C181.125 66.3066 181.382 66.2668 181.614 66.1873C181.846 66.1044 182.047 65.9818 182.216 65.8194C182.385 65.6569 182.514 65.4564 182.603 65.2178L184.01 65.4713C183.898 65.8856 183.696 66.2486 183.404 66.5601C183.116 66.8684 182.753 67.1087 182.315 67.281C181.881 67.45 181.385 67.5346 180.829 67.5346Z" fill="white"/>
</g>
<defs>
<filter id="filter0_d_20_170" x="0" y="0" width="554" height="289" filterUnits="userSpaceOnUse" color-interpolation-filters="sRGB">
<feFlood flood-opacity="0" result="BackgroundImageFix"/>
<feColorMatrix in="SourceAlpha" type="matrix" values="0 0 0 0 0 0 0 0 0 0 0 0 0 0 0 0 0 0 127 0" result="hardAlpha"/>
<feOffset dy="4"/>
<feGaussianBlur stdDeviation="15"/>
<feComposite in2="hardAlpha" operator="out"/>
<feColorMatrix type="matrix" values="0 0 0 0 0 0 0 0 0 0 0 0 0 0 0 0 0 0 0.12 0"/>
<feBlend mode="normal" in2="BackgroundImageFix" result="effect1_dropShadow_20_170"/>
<feBlend mode="normal" in="SourceGraphic" in2="effect1_dropShadow_20_170" result="shape"/>
</filter>
<linearGradient id="paint0_linear_20_170" x1="133.74" y1="73.174" x2="227.343" y2="304.238" gradientUnits="userSpaceOnUse">
<stop stop-color="#1389CB"/>
<stop offset="1" stop-color="#138BCF"/>
</linearGradient>
</defs>
</svg>
