<svg width="72" height="72" viewBox="0 0 72 72" fill="none" xmlns="http://www.w3.org/2000/svg">
<rect width="72" height="72" rx="36" fill="#23A6F0"/>
<g clip-path="url(#clip0_151_79)">
<path fill-rule="evenodd" clip-rule="evenodd" d="M46.9583 45.3334C46.9583 45.3334 48.5 45.3334 48.5 43.7778C48.5 42.2222 46.9583 37.5556 40.7916 37.5556C34.625 37.5556 33.0833 42.2222 33.0833 43.7778C33.0833 45.3334 34.625 45.3334 34.625 45.3334H46.9583ZM34.6589 43.7778H46.9244C46.9316 43.7769 46.9388 43.7759 46.946 43.7747L46.9583 43.7716C46.9552 43.3609 46.7009 42.1694 45.7866 41.096C44.9356 40.0896 43.4402 39.1111 40.7916 39.1111C38.1446 39.1111 36.6492 40.0911 35.7966 41.096C34.8824 42.1694 34.6265 43.3625 34.625 43.7716C34.6363 43.7738 34.6476 43.7758 34.6589 43.7778ZM40.7916 34.4445C41.6094 34.4445 42.3937 34.1167 42.9719 33.5332C43.5501 32.9498 43.875 32.1585 43.875 31.3334C43.875 30.5082 43.5501 29.7169 42.9719 29.1335C42.3937 28.55 41.6094 28.2222 40.7916 28.2222C39.9739 28.2222 39.1896 28.55 38.6114 29.1335C38.0332 29.7169 37.7083 30.5082 37.7083 31.3334C37.7083 32.1585 38.0332 32.9498 38.6114 33.5332C39.1896 34.1167 39.9739 34.4445 40.7916 34.4445ZM45.4166 31.3334C45.4166 31.9462 45.297 32.553 45.0646 33.1192C44.8322 33.6854 44.4915 34.1998 44.062 34.6332C43.6325 35.0665 43.1227 35.4103 42.5616 35.6448C42.0004 35.8793 41.399 36 40.7916 36C40.1843 36 39.5829 35.8793 39.0217 35.6448C38.4606 35.4103 37.9507 35.0665 37.5213 34.6332C37.0918 34.1998 36.7511 33.6854 36.5187 33.1192C36.2863 32.553 36.1666 31.9462 36.1666 31.3334C36.1666 30.0957 36.6539 28.9087 37.5213 28.0335C38.3886 27.1584 39.565 26.6667 40.7916 26.6667C42.0183 26.6667 43.1947 27.1584 44.062 28.0335C44.9294 28.9087 45.4166 30.0957 45.4166 31.3334ZM34.5263 37.9911C33.9096 37.7952 33.2739 37.6664 32.6301 37.6069C32.2683 37.5722 31.9051 37.5551 31.5416 37.5556C25.375 37.5556 23.8333 42.2222 23.8333 43.7778C23.8333 44.8154 24.3467 45.3334 25.375 45.3334H31.8746C31.6461 44.8477 31.5321 44.3153 31.5416 43.7778C31.5416 42.2067 32.1229 40.6014 33.2221 39.2605C33.5967 38.8031 34.033 38.3754 34.5263 37.9911ZM31.4183 39.1111C28.8468 39.1422 27.3869 40.1067 26.5466 41.096C25.6263 42.1756 25.375 43.3718 25.375 43.7778H30C30 42.1522 30.4979 40.5329 31.4183 39.1111ZM26.1458 32.1111C26.1458 30.8735 26.6331 29.6865 27.5004 28.8113C28.3678 27.9361 29.5442 27.4445 30.7708 27.4445C31.9974 27.4445 33.1738 27.9361 34.0412 28.8113C34.9085 29.6865 35.3958 30.8735 35.3958 32.1111C35.3958 33.3488 34.9085 34.5358 34.0412 35.411C33.1738 36.2861 31.9974 36.7778 30.7708 36.7778C29.5442 36.7778 28.3678 36.2861 27.5004 35.411C26.6331 34.5358 26.1458 33.3488 26.1458 32.1111ZM30.7708 29C29.9531 29 29.1688 29.3278 28.5906 29.9112C28.0123 30.4947 27.6875 31.286 27.6875 32.1111C27.6875 32.9362 28.0123 33.7276 28.5906 34.311C29.1688 34.8945 29.9531 35.2222 30.7708 35.2222C31.5886 35.2222 32.3728 34.8945 32.9511 34.311C33.5293 33.7276 33.8541 32.9362 33.8541 32.1111C33.8541 31.286 33.5293 30.4947 32.9511 29.9112C32.3728 29.3278 31.5886 29 30.7708 29Z" fill="white"/>
</g>
<defs>
<clipPath id="clip0_151_79">
<rect width="24" height="19.7647" fill="white" transform="translate(24 26)"/>
</clipPath>
</defs>
</svg>
