<svg width="717" height="540" viewBox="0 0 717 540" fill="none" xmlns="http://www.w3.org/2000/svg">
<g clip-path="url(#clip0_160_75)">
<path d="M117.854 245.53V93.772C117.854 91.6048 118.508 89.5263 119.67 87.9939C120.833 86.4614 122.409 85.6004 124.053 85.6004C125.697 85.6004 127.274 86.4614 128.436 87.9939C129.599 89.5263 130.252 91.6048 130.252 93.772V245.53C130.252 247.698 129.599 249.776 128.436 251.309C127.274 252.841 125.697 253.702 124.053 253.702C122.409 253.702 120.833 252.841 119.67 251.309C118.508 249.776 117.854 247.698 117.854 245.53Z" fill="#F0F0F0"/>
<path d="M103.022 245.53V93.772C103.022 91.6048 103.675 89.5263 104.837 87.9939C106 86.4614 107.576 85.6004 109.221 85.6004C110.865 85.6004 112.441 86.4614 113.604 87.9939C114.766 89.5263 115.419 91.6048 115.419 93.772V245.53C115.419 247.698 114.766 249.776 113.604 251.309C112.441 252.841 110.865 253.702 109.221 253.702C107.576 253.702 106 252.841 104.837 251.309C103.675 249.776 103.022 247.698 103.022 245.53Z" fill="#F0F0F0"/>
<path d="M88.1888 245.53V93.772C88.1888 91.6048 88.8419 89.5263 90.0044 87.9939C91.1669 86.4614 92.7436 85.6004 94.3876 85.6004C96.0316 85.6004 97.6083 86.4614 98.7708 87.9939C99.9333 89.5263 100.586 91.6048 100.586 93.772V245.53C100.586 247.698 99.9333 249.776 98.7708 251.309C97.6083 252.841 96.0316 253.702 94.3876 253.702C92.7436 253.702 91.1669 252.841 90.0044 251.309C88.8419 249.776 88.1888 247.698 88.1888 245.53Z" fill="#F0F0F0"/>
<path d="M648.208 487.919C645.712 487.921 643.234 487.354 640.884 486.243L640.522 486.071L640.689 485.014C636.481 473.807 637.952 458.453 644.455 445.829C650.368 434.352 659.358 426.008 667.29 418.647C668.296 417.713 669.492 417.198 670.722 417.167C671.953 417.136 673.162 417.591 674.195 418.473C675.228 419.355 676.037 420.625 676.518 422.118C677 423.612 677.131 425.261 676.896 426.853L674.059 446.037C672.012 459.877 669.577 472.976 662.355 481.144C658.388 485.519 653.381 487.918 648.208 487.919Z" fill="#E6E6E6"/>
<path d="M666.784 521.069C664.037 521.048 661.337 520.122 658.93 518.376C656.523 516.63 654.485 514.119 653.002 511.07L652.796 510.649L653.286 510.079C654.555 500.952 660.524 492.82 668.538 489.322C675.822 486.144 683.862 486.664 690.952 487.121C691.889 487.181 692.791 487.606 693.544 488.343C694.298 489.08 694.868 490.095 695.183 491.26C695.498 492.424 695.544 493.686 695.315 494.885C695.085 496.084 694.591 497.166 693.895 497.994L685.918 507.486C680.121 514.382 674.34 520.609 667.367 521.055C667.172 521.065 666.978 521.07 666.784 521.069Z" fill="#E6E6E6"/>
<path d="M642.028 531.216C640.85 519.653 639.639 507.941 640.465 496.254C641.199 485.875 643.549 475.737 648.333 467.424C650.86 463.035 653.95 459.262 657.463 456.275C658.376 455.498 659.217 457.448 658.307 458.221C652.218 463.432 647.533 471.049 644.925 479.981C642.012 489.968 641.544 500.854 642.046 511.463C642.35 517.878 642.993 524.251 643.642 530.617C643.694 530.902 643.663 531.203 643.554 531.46C643.446 531.717 643.269 531.911 643.057 532.003C642.951 532.041 642.839 532.05 642.73 532.031C642.62 532.012 642.514 531.965 642.419 531.891C642.323 531.818 642.24 531.721 642.173 531.605C642.106 531.489 642.057 531.357 642.028 531.216V531.216Z" fill="#F2F2F2"/>
<path d="M638.7 537.863C644.369 524.343 650.946 509.318 662.696 504.515C665.959 503.185 669.388 502.708 672.79 503.111C673.862 503.235 673.594 505.461 672.524 505.337C666.81 504.705 661.11 506.737 656.417 511.08C651.875 515.246 648.339 521.038 645.346 527.18C643.512 530.943 641.87 534.865 640.228 538.781C639.703 540.033 638.168 539.129 638.699 537.863H638.7Z" fill="#F2F2F2"/>
<path d="M636.148 537.665L641.873 537.838L607.354 294.747L601.63 296.169L610.643 359.23H581.603L590.617 296.169L584.892 294.747L550.662 537.838L556.099 537.665L574.095 411.762H618.152L636.148 537.665ZM575.43 402.423L580.268 368.569H611.978L616.817 402.423H575.43Z" fill="#CACACA"/>
<path d="M386.173 249.402V169.571C386.173 167.201 388.954 165.273 392.372 165.273C395.79 165.273 398.571 167.201 398.571 169.571V249.402C398.571 251.773 395.79 253.701 392.372 253.701C388.954 253.701 386.173 251.773 386.173 249.402Z" fill="#F0F0F0"/>
<path d="M371.34 249.402V169.571C371.34 167.201 374.121 165.273 377.539 165.273C380.957 165.273 383.738 167.201 383.738 169.571V249.402C383.738 251.773 380.957 253.701 377.539 253.701C374.121 253.701 371.34 251.773 371.34 249.402Z" fill="#F0F0F0"/>
<path d="M356.507 249.402V169.571C356.507 167.201 359.288 165.273 362.706 165.273C366.124 165.273 368.905 167.201 368.905 169.571V249.402C368.905 251.773 366.124 253.701 362.706 253.701C359.288 253.701 356.507 251.773 356.507 249.402Z" fill="#F0F0F0"/>
<path d="M481.293 190.695C481.265 190.452 481.199 190.22 481.099 190.013C480.999 189.806 480.867 189.63 480.712 189.494L433.979 148.824C434.683 148.437 435.272 147.757 435.656 146.887H435.657C436.123 145.814 436.249 144.541 436.006 143.346C435.763 142.151 435.171 141.131 434.36 140.509L430.525 137.59C429.711 136.975 428.745 136.809 427.839 137.129C426.932 137.45 426.159 138.23 425.687 139.3C425.432 139.887 425.279 140.542 425.238 141.217L391.505 111.86C390.372 108.243 388.654 104.995 386.472 102.343C384.289 99.6902 381.694 97.697 378.867 96.5018V83.5575H366.47V96.5018C362.357 98.2357 358.768 101.648 356.221 106.245C353.674 110.843 352.302 116.388 352.301 122.081V125.583H364.699C364.699 128.369 365.539 131.042 367.033 133.012C368.528 134.982 370.555 136.089 372.669 136.089C374.782 136.089 376.81 134.982 378.304 133.012C379.799 131.042 380.639 128.369 380.639 125.583H393.036V122.081C393.035 120.402 392.915 118.727 392.678 117.078L478.016 191.346L442.567 248.162C442.292 248.16 442.018 248.157 441.741 248.157C438.913 248.157 436.172 248.245 433.561 248.397C433.718 247.82 433.787 247.207 433.763 246.595C433.712 245.359 433.291 244.201 432.594 243.373C431.897 242.545 430.979 242.114 430.042 242.175L425.62 242.478C424.683 242.546 423.804 243.101 423.176 244.02C422.547 244.939 422.221 246.149 422.267 247.385C422.299 248.115 422.464 248.824 422.747 249.453C414.928 250.548 409.861 252.058 409.861 252.826C409.861 254.085 423.466 252.887 440.494 252.829C440.572 253.121 440.708 253.38 440.887 253.58C441.066 253.78 441.283 253.914 441.514 253.968C441.745 254.021 441.983 253.993 442.203 253.885C442.423 253.777 442.618 253.594 442.766 253.355L443.095 252.83C460.073 252.892 473.62 254.083 473.62 252.826C473.62 251.642 461.575 248.696 445.968 248.223L481.006 192.068C481.124 191.878 481.21 191.658 481.26 191.421C481.309 191.185 481.32 190.937 481.293 190.695Z" fill="#CCCCCC"/>
<path d="M482.571 538.249H373.458C371.253 538.246 369.139 537.089 367.58 535.034C366.021 532.978 365.144 530.191 365.142 527.285V291.223C365.139 288.626 364.355 286.136 362.962 284.3C361.569 282.463 359.68 281.43 357.71 281.427H102.483C100.513 281.43 98.6242 282.463 97.231 284.3C95.8379 286.136 95.0542 288.626 95.0518 291.223V527.285C95.0493 530.191 94.1723 532.978 92.6131 535.034C91.0539 537.089 88.9399 538.246 86.7348 538.249H83.0015C80.7964 538.246 78.6824 537.089 77.1232 535.034C75.564 532.978 74.687 530.191 74.6844 527.285V278.509C74.6904 271.545 76.7915 264.869 80.5268 259.945C84.2621 255.021 89.3266 252.251 94.6091 252.243H470.964C476.246 252.251 481.311 255.021 485.046 259.945C488.781 264.869 490.882 271.545 490.888 278.509V527.285C490.886 530.191 490.009 532.978 488.449 535.034C486.89 537.09 484.776 538.246 482.571 538.249Z" fill="#E4E4E4"/>
<path d="M490.446 313.53H365.584V320.534H490.446V313.53Z" fill="white"/>
<path d="M490.446 408.087H365.584V415.091H490.446V408.087Z" fill="white"/>
<path d="M262.227 251.09L258.639 249.098L256.177 225.383H223.394L220.726 249.001L217.515 251.117C217.361 251.219 217.238 251.385 217.166 251.59C217.093 251.796 217.075 252.027 217.114 252.247C217.154 252.468 217.248 252.664 217.383 252.804C217.518 252.945 217.684 253.021 217.856 253.021H261.932C262.108 253.021 262.278 252.941 262.414 252.794C262.551 252.647 262.644 252.443 262.679 252.215C262.714 251.988 262.688 251.752 262.605 251.546C262.523 251.341 262.389 251.18 262.227 251.09Z" fill="#E6E6E6"/>
<path d="M320.485 228.538H159.446C158.601 228.536 157.791 228.092 157.195 227.303C156.598 226.515 156.263 225.446 156.263 224.332V194.397H323.668V224.332C323.668 225.446 323.333 226.515 322.736 227.303C322.139 228.092 321.33 228.536 320.485 228.538Z" fill="#CCCCCC"/>
<path d="M323.836 208.545H156.116V80.456C156.117 79.1118 156.522 77.8231 157.244 76.8726C157.965 75.9221 158.942 75.3874 159.962 75.3859H319.99C321.01 75.3874 321.987 75.9221 322.709 76.8726C323.43 77.8231 323.835 79.1118 323.836 80.456V208.545Z" fill="#3F3D56"/>
<path d="M313.819 199.248H166.133C165.347 199.247 164.593 198.835 164.037 198.102C163.482 197.369 163.169 196.376 163.168 195.34V88.5913C163.169 87.555 163.482 86.5614 164.037 85.8286C164.593 85.0958 165.347 84.6836 166.133 84.6824H313.819C314.605 84.6836 315.359 85.0958 315.915 85.8286C316.471 86.5614 316.783 87.555 316.784 88.5913V195.34C316.783 196.376 316.471 197.369 315.915 198.102C315.359 198.835 314.605 199.247 313.819 199.248Z" fill="white"/>
<path d="M479.378 96.937C480.79 96.6686 482.231 96.8119 483.597 97.3567C484.963 97.9015 486.222 98.8345 487.285 100.09C488.348 101.346 489.189 102.893 489.75 104.624C490.31 106.354 490.576 108.226 490.528 110.106L522.908 126.537L508.238 140.354L479.738 122.633C477.347 122.318 475.127 120.857 473.498 118.528C471.869 116.199 470.945 113.164 470.9 109.996C470.856 106.829 471.694 103.75 473.257 101.343C474.819 98.9362 476.997 97.3684 479.378 96.9369V96.937Z" fill="#9E616A"/>
<path d="M602.324 88.8715L607.802 102.001C606.478 110.328 603.057 117.82 598.094 123.259C589.707 132.584 545.855 167.312 545.855 167.312L490.493 130.674L500.178 113.708L543.642 132.91C559.765 112.839 579.222 98.0115 600.462 89.6082L602.324 88.8715Z" fill="#E4E4E4"/>
<path d="M592.138 306.125C616 306.125 635.344 297.816 635.344 287.566C635.344 277.316 616 269.007 592.138 269.007C568.276 269.007 548.932 277.316 548.932 287.566C548.932 297.816 568.276 306.125 592.138 306.125Z" fill="#CACACA"/>
<path d="M495.209 521.938L483.736 517.757L490.509 457.43L507.442 463.602L495.209 521.938Z" fill="#9E616A"/>
<path d="M495.061 537.665L458.067 524.184L458.196 523.568C459.252 518.533 461.781 514.258 465.228 511.683C468.675 509.107 472.756 508.441 476.575 509.832L476.576 509.833L499.171 518.067L495.061 537.665Z" fill="#2F2E41"/>
<path d="M461.945 522.134L451.055 515.795L464.42 457.413L480.491 466.767L461.945 522.134Z" fill="#9E616A"/>
<path d="M460.061 537.665L424.95 517.227L425.146 516.642C426.747 511.864 429.722 508.12 433.416 506.233C437.11 504.346 441.222 504.471 444.847 506.581L444.847 506.581L466.292 519.064L460.061 537.665Z" fill="#2F2E41"/>
<path d="M625.764 242.191C625.764 242.191 631.535 265.764 596.123 295.575L550.517 355.483L503.13 504.914L474.996 488.287L480.514 468.871L484.217 455.843L486.111 449.177L488.142 442.032L518.26 336.051L543.56 277.655L544.294 245.968L550.517 223.632L595.665 202.513L625.764 242.191Z" fill="#2F2E41"/>
<path d="M602.74 243.359C602.74 243.359 608.511 266.931 573.099 296.743L527.493 356.651L480.106 506.081L451.972 489.454L457.49 470.039L461.193 457.01L463.087 450.345L465.117 443.2L495.236 337.218L503.707 317.666C514.883 291.871 528.462 268.021 544.129 246.672L552.433 235.355L553.319 217.845L572.641 203.681L602.74 243.359Z" fill="#2F2E41"/>
<path d="M575.457 127.957L589.626 88.2664L614.352 83.8201C614.352 83.8201 633.659 116.246 628.59 161.811C626.689 178.898 625.14 195.909 625.048 210.84C625.023 214.814 627.66 216.588 627.704 220.179C627.748 223.708 622.707 229.455 624.162 231.853C626.243 235.158 627.482 239.242 627.704 243.527C625.95 249.032 572.84 219.206 550.517 223.632L575.457 127.957Z" fill="#E4E4E4"/>
<path d="M610.576 63.8381C616.887 49.8421 613.397 31.7515 602.78 23.4316C592.163 15.1118 578.44 19.7132 572.128 33.7093C565.817 47.7053 569.308 65.7959 579.925 74.1158C590.542 82.4356 604.265 77.8342 610.576 63.8381Z" fill="#9E616A"/>
<path d="M605.65 38.1882C605.607 38.964 605.548 39.9914 605.48 41.1537C605.41 44.3356 606.091 47.4677 607.427 50.119C608.678 52.9083 607.185 69.7551 607.185 69.7551C643.818 36.0924 614.873 2.27294 603.55 5.27926C603.786 0.998352 594.552 2.69425 594.552 2.69425C591.033 -4.52924 583.322 5.05934 583.322 5.05934L584.81 1.75926C578.823 3.76681 572.905 28.1598 572.905 28.1598C574.935 38.6832 605.887 33.9073 605.65 38.1882Z" fill="#2F2E41"/>
<path d="M463.539 143.57C476.127 121.497 486.079 97.0133 493.048 70.9704C493.451 69.4126 493.423 67.7165 492.967 66.184C492.511 64.6515 491.657 63.3821 490.557 62.6017L447.48 32.1739C446.783 31.6779 446.01 31.398 445.218 31.3557C444.427 31.3133 443.639 31.5096 442.914 31.9295C442.175 32.3526 441.519 32.9922 440.997 33.7997C440.474 34.6073 440.098 35.5613 439.897 36.5894C434.883 61.6851 425.458 84.8725 412.385 104.276C411.847 105.066 411.453 106.007 411.232 107.028C411.012 108.049 410.971 109.123 411.113 110.168C411.249 111.196 411.562 112.17 412.027 113.015C412.492 113.86 413.097 114.554 413.796 115.044L456.874 145.472C457.976 146.247 459.25 146.481 460.471 146.133C461.691 145.784 462.778 144.876 463.539 143.57Z" fill="#CCCCCC"/>
<path d="M460.599 140.659C460.367 141.04 460.042 141.302 459.679 141.401C459.316 141.5 458.938 141.429 458.611 141.2L415.533 110.771C415.324 110.628 415.143 110.422 415.004 110.17C414.865 109.919 414.773 109.629 414.733 109.322C414.688 108.998 414.701 108.665 414.77 108.349C414.839 108.033 414.963 107.742 415.132 107.5C428.59 87.5247 438.292 63.654 443.454 37.8188C443.513 37.4996 443.628 37.2029 443.79 36.952C443.951 36.7012 444.154 36.5029 444.383 36.3727C444.599 36.2455 444.834 36.186 445.07 36.1988C445.306 36.2117 445.537 36.2966 445.744 36.4468L488.82 66.8744C489.147 67.1069 489.401 67.4823 489.54 67.9358C489.679 68.3892 489.693 68.8923 489.58 69.3581C482.736 94.9348 472.962 118.98 460.599 140.659Z" fill="white"/>
<path d="M445.528 65.356L475.24 88.3137C478.196 90.5979 480.873 84.5463 477.922 82.2658L448.21 59.308C445.254 57.0238 442.577 63.0754 445.528 65.356V65.356Z" fill="#6C63FF"/>
<path d="M440.215 78.1971L469.927 101.155C472.883 103.439 475.56 97.3874 472.608 95.1069L442.897 72.1491C439.94 69.8649 437.263 75.9165 440.215 78.1971V78.1971Z" fill="#6C63FF"/>
<path d="M434.016 92.2056L463.728 115.163C466.684 117.447 469.361 111.396 466.41 109.115L436.698 86.1576C433.742 83.8734 431.065 89.925 434.016 92.2055V92.2056Z" fill="#6C63FF"/>
<path d="M427.817 103.879L457.529 126.837C460.485 129.121 463.162 123.07 460.211 120.789L430.499 97.8313C427.543 95.5471 424.866 101.599 427.817 103.879V103.879Z" fill="#6C63FF"/>
<path d="M563.265 238.919L574.42 271.985C574.689 272.777 574.804 273.644 574.754 274.509C574.705 275.374 574.493 276.209 574.137 276.939C573.718 277.811 573.113 278.5 572.398 278.92C571.682 279.339 570.889 279.47 570.117 279.296C569.854 279.243 569.596 279.153 569.348 279.026C568.362 278.524 567.567 277.527 567.137 276.254L555.983 243.188C555.77 242.558 555.654 241.878 555.64 241.189C555.627 240.499 555.716 239.813 555.904 239.169C556.283 237.868 557.039 236.82 558.005 236.254C558.97 235.687 560.067 235.65 561.054 236.15C562.04 236.65 562.836 237.646 563.265 238.919Z" fill="#6C63FF"/>
<path d="M573.52 269.319L575.755 275.992L576.897 285.454C576.973 286.077 576.89 286.715 576.662 287.269C576.434 287.824 576.073 288.264 575.636 288.52C575.199 288.776 574.709 288.835 574.244 288.687C573.779 288.538 573.364 288.192 573.064 287.701L568.44 280.116L566.238 273.588L573.52 269.319Z" fill="#3F3D56"/>
<path d="M553.504 229.719L555.102 242.957C555.155 243.391 555.282 243.803 555.474 244.161C555.666 244.519 555.918 244.814 556.211 245.024C556.504 245.233 556.829 245.351 557.161 245.368C557.494 245.386 557.825 245.302 558.129 245.123L559.714 244.194L562.773 253.261C562.868 253.543 563.045 253.764 563.264 253.875C563.483 253.986 563.727 253.977 563.941 253.852C564.155 253.726 564.323 253.493 564.408 253.205C564.492 252.916 564.486 252.595 564.391 252.312L561.332 243.246L562.917 242.317C563.442 242.008 563.854 241.438 564.061 240.731C564.268 240.024 564.254 239.237 564.023 238.543C563.945 238.314 563.845 238.098 563.725 237.903L557.338 227.471C557.038 226.98 556.623 226.634 556.158 226.486C555.693 226.339 555.203 226.397 554.766 226.654C554.329 226.91 553.968 227.349 553.74 227.904C553.512 228.458 553.429 229.096 553.504 229.719Z" fill="#3F3D56"/>
<path d="M558.131 253.613C558.383 251.761 558.939 250.004 559.761 248.466C560.583 246.928 561.651 245.646 562.89 244.711C564.129 243.776 565.508 243.21 566.93 243.054C568.352 242.897 569.784 243.154 571.123 243.806L593.143 208.46L598.475 231.164L576.747 261.248C575.767 264.141 574.017 266.46 571.828 267.766C569.638 269.071 567.161 269.272 564.867 268.331C562.572 267.39 560.619 265.372 559.378 262.659C558.136 259.947 557.693 256.728 558.131 253.613Z" fill="#9E616A"/>
<path d="M585.853 251.317L576.154 232.85L603.694 184.444L589.507 144.368L590.54 96.6985L602.263 93.8436L602.409 93.9399C608.108 98.2648 612.514 105.03 614.894 113.111C617.819 122.749 624.348 158.931 627.979 179.64C628.692 183.653 628.614 187.84 627.752 191.802C626.89 195.764 625.273 199.37 623.055 202.274L585.853 251.317Z" fill="#E4E4E4"/>
<path d="M312.785 162.085C312.704 162.981 312.677 163.885 312.705 164.788L263.05 212.409L249.409 204.451L237.607 230.02L260.717 247.203C262.584 248.591 264.743 249.144 266.868 248.777C268.993 248.411 270.971 247.145 272.505 245.171L322.481 180.821C325.039 181.678 327.734 181.488 330.208 180.276C332.682 179.065 334.818 176.888 336.331 174.038C337.844 171.187 338.663 167.796 338.678 164.317C338.694 160.838 337.906 157.434 336.418 154.56C334.931 151.686 332.815 149.477 330.352 148.226C327.889 146.976 325.196 146.744 322.63 147.56C320.064 148.377 317.748 150.204 315.99 152.799C314.231 155.393 313.113 158.632 312.785 162.085V162.085Z" fill="#FFB6B6"/>
<path d="M261.444 214.15L246.964 245.959C246.552 246.864 245.997 247.641 245.336 248.238C244.676 248.835 243.926 249.237 243.137 249.417C242.348 249.597 241.539 249.551 240.764 249.281C239.99 249.012 239.269 248.526 238.65 247.856L216.97 224.383C213.47 221.577 210.957 217.057 209.981 211.813C209.005 206.568 209.647 201.028 211.765 196.406C213.883 191.784 217.305 188.458 221.28 187.157C225.255 185.855 229.46 186.684 232.972 189.463L258.803 203.587C259.542 203.992 260.207 204.602 260.752 205.376C261.296 206.15 261.708 207.069 261.958 208.072C262.209 209.074 262.293 210.136 262.204 211.185C262.115 212.234 261.856 213.245 261.444 214.15L261.444 214.15Z" fill="#6C63FF"/>
<path d="M199.401 490.627H227.784V428.621H199.401V490.627Z" fill="#CACACA"/>
<path d="M226.362 461.431L222.719 468.508L290.84 529.444L294.483 522.367L226.362 461.431Z" fill="#CACACA"/>
<path d="M200.823 461.431L132.702 522.367L136.345 529.444L204.466 468.508L200.823 461.431Z" fill="#CACACA"/>
<path d="M292.662 537.665C297.588 537.665 301.582 532.4 301.582 525.906C301.582 519.411 297.588 514.146 292.662 514.146C287.735 514.146 283.741 519.411 283.741 525.906C283.741 532.4 287.735 537.665 292.662 537.665Z" fill="#CACACA"/>
<path d="M213.187 537.665C218.114 537.665 222.108 532.4 222.108 525.906C222.108 519.411 218.114 514.146 213.187 514.146C208.26 514.146 204.266 519.411 204.266 525.906C204.266 532.4 208.26 537.665 213.187 537.665Z" fill="#CACACA"/>
<path d="M134.524 537.665C139.45 537.665 143.444 532.4 143.444 525.906C143.444 519.411 139.45 514.146 134.524 514.146C129.597 514.146 125.603 519.411 125.603 525.906C125.603 532.4 129.597 537.665 134.524 537.665Z" fill="#CACACA"/>
<path d="M216.431 464.969H209.943V525.906H216.431V464.969Z" fill="#CACACA"/>
<path d="M207.51 456.417H219.675V374.099H207.51V456.417Z" fill="#CACACA"/>
<path d="M178.721 386.928V367.684C178.724 364.142 179.793 360.745 181.693 358.24C183.594 355.734 186.171 354.325 188.858 354.321H243.193C245.88 354.325 248.457 355.734 250.357 358.24C252.258 360.745 253.327 364.142 253.33 367.684V386.928C253.327 390.471 252.258 393.867 250.357 396.372C248.457 398.878 245.88 400.287 243.193 400.291H188.858C186.171 400.287 183.594 398.878 181.693 396.372C179.793 393.867 178.724 390.471 178.721 386.928Z" fill="#3F3D56"/>
<path d="M276.856 518.464L291.882 518.463L299.032 467.085L276.854 467.087L276.856 518.464Z" fill="#FFB8B8"/>
<path d="M273.024 537.665L321.476 537.663V536.855C321.476 533.59 320.989 530.357 320.041 527.341C319.093 524.325 317.704 521.584 315.953 519.276C314.202 516.967 312.123 515.136 309.835 513.887C307.547 512.637 305.094 511.994 302.618 511.994H302.616L273.023 511.996L273.024 537.665Z" fill="#2F2E41"/>
<path d="M299.331 486.604L329.288 398.046C331.79 390.582 332.066 382.15 330.063 374.43C328.06 366.709 323.924 360.266 318.48 356.385L253.501 310.452L223.85 307.127L196.499 303.85L196.302 304.29C196.05 304.852 190.169 318.242 194.144 332.924C197.16 344.061 205.003 352.76 217.456 358.78C246.522 372.83 280.1 384.838 293.187 389.347C293.765 389.542 294.306 389.897 294.773 390.387C295.24 390.877 295.623 391.492 295.897 392.191C296.172 392.882 296.335 393.641 296.376 394.419C296.418 395.197 296.336 395.978 296.138 396.713L268.306 479.142C268.016 480.187 267.911 481.307 268 482.414C268.09 483.521 268.371 484.586 268.822 485.528C269.273 486.469 269.882 487.261 270.602 487.843C271.323 488.425 272.134 488.781 272.975 488.884L293.771 490.88C293.948 490.902 294.124 490.913 294.298 490.913C295.364 490.913 296.406 490.505 297.299 489.741C298.192 488.976 298.898 487.886 299.331 486.604Z" fill="#2F2E41"/>
<path d="M267.051 518.464L282.076 518.463L289.226 467.085L267.049 467.087L267.051 518.464Z" fill="#FFB8B8"/>
<path d="M263.218 537.665L311.671 537.663V536.855C311.671 533.59 311.183 530.357 310.235 527.341C309.287 524.325 307.898 521.584 306.147 519.276C304.396 516.967 302.317 515.136 300.029 513.887C297.741 512.637 295.289 511.994 292.812 511.994H292.81L263.217 511.996L263.218 537.665Z" fill="#2F2E41"/>
<path d="M288.3 491.451L318.257 402.894C320.758 395.43 321.035 386.998 319.032 379.277C317.029 371.556 312.893 365.113 307.448 361.232L242.47 315.299L212.819 311.974L191.396 309.525L191.399 309.137C191.147 309.699 185.266 323.089 189.241 337.772C192.257 348.909 193.971 357.608 206.424 363.627C235.491 377.677 269.068 389.685 282.155 394.195C282.734 394.39 283.274 394.744 283.741 395.234C284.209 395.724 284.592 396.339 284.866 397.038C285.14 397.729 285.304 398.488 285.345 399.266C285.386 400.044 285.305 400.826 285.106 401.56L257.275 483.989C256.984 485.035 256.88 486.154 256.969 487.261C257.059 488.368 257.34 489.434 257.791 490.375C258.242 491.316 258.851 492.108 259.571 492.69C260.291 493.272 261.103 493.628 261.944 493.731L282.74 495.727C282.916 495.749 283.092 495.76 283.267 495.76C284.332 495.76 285.374 495.353 286.268 494.588C287.161 493.823 287.867 492.734 288.3 491.451Z" fill="#2F2E41"/>
<path d="M269.509 110.012C273.355 88.6888 263.361 67.2923 247.186 62.2214C231.011 57.1505 214.78 70.3254 210.934 91.6483C207.087 112.971 217.081 134.368 233.256 139.439C249.431 144.509 265.662 131.335 269.509 110.012Z" fill="#FFB8B8"/>
<path d="M343.991 253.303C356.579 231.23 366.531 206.746 373.5 180.703C373.903 179.146 373.875 177.449 373.419 175.917C372.963 174.384 372.109 173.115 371.009 172.335L327.932 141.907C327.235 141.411 326.462 141.131 325.67 141.089C324.879 141.046 324.091 141.243 323.366 141.662C322.627 142.086 321.971 142.725 321.449 143.533C320.926 144.34 320.55 145.294 320.349 146.322C315.335 171.418 305.91 194.605 292.837 214.009C292.299 214.798 291.905 215.74 291.684 216.761C291.464 217.782 291.423 218.856 291.565 219.901C291.701 220.929 292.014 221.903 292.479 222.748C292.944 223.593 293.549 224.287 294.248 224.777L337.326 255.205C338.428 255.98 339.702 256.214 340.923 255.866C342.143 255.517 343.23 254.609 343.991 253.303Z" fill="#CCCCCC"/>
<path d="M341.051 250.392C340.819 250.773 340.494 251.035 340.131 251.134C339.768 251.233 339.39 251.162 339.063 250.933L295.985 220.504C295.776 220.361 295.595 220.155 295.456 219.903C295.317 219.652 295.225 219.362 295.185 219.055C295.141 218.731 295.153 218.398 295.222 218.082C295.291 217.766 295.415 217.475 295.584 217.233C309.042 197.258 318.744 173.387 323.906 147.552C323.966 147.233 324.081 146.936 324.242 146.685C324.403 146.434 324.606 146.236 324.835 146.106C325.051 145.978 325.286 145.919 325.522 145.932C325.758 145.945 325.989 146.03 326.196 146.18L369.273 176.607C369.599 176.84 369.853 177.215 369.992 177.669C370.131 178.122 370.145 178.625 370.032 179.091C363.188 204.668 353.414 228.713 341.051 250.392Z" fill="white"/>
<path d="M325.98 175.089L355.692 198.047C358.648 200.331 361.325 194.279 358.374 191.999L328.662 169.041C325.706 166.757 323.029 172.808 325.98 175.089V175.089Z" fill="#CCCCCC"/>
<path d="M320.667 187.93L350.379 210.888C353.335 213.172 356.012 207.12 353.061 204.84L323.349 181.882C320.393 179.598 317.716 185.649 320.667 187.93V187.93Z" fill="#CCCCCC"/>
<path d="M316.492 200.721L343.514 221.868C346.202 223.972 349.078 219.622 346.393 217.521L319.372 196.375C316.684 194.271 313.808 198.621 316.492 200.721Z" fill="#CCCCCC"/>
<path d="M308.269 213.612L337.981 236.57C340.937 238.854 343.614 232.803 340.663 230.522L310.951 207.564C307.995 205.28 305.318 211.332 308.269 213.612V213.612Z" fill="#CCCCCC"/>
<path d="M257.579 313.666L198.005 313.196L197.989 312.638C196.853 273.234 200.506 237.541 209.157 203.518C209.279 202.245 209.411 200.884 209.541 199.548C211.019 184.326 212.192 172.241 223.172 167.74C222.257 166.137 221.718 164.216 221.621 162.213C221.551 160.883 221.684 159.547 222.01 158.285C222.336 157.022 222.849 155.858 223.52 154.859C224.162 153.895 224.943 153.108 225.817 152.546C226.692 151.983 227.643 151.656 228.614 151.583L249.819 150.631C250.933 150.621 252.018 151.106 252.897 152.007C254.512 153.588 255.647 155.875 256.098 158.458C256.55 161.041 256.289 163.752 255.363 166.105C255.113 166.761 255.017 167.06 254.981 167.189C255.735 172.396 257.971 178.58 260.338 185.125C263.727 194.496 267.568 205.117 268.556 216.479C269.089 222.614 268.868 228.822 267.9 234.864C267.458 238.12 267.356 241.44 267.597 244.732C267.791 249.613 267.973 254.222 265.88 258.68C265.347 259.888 264.736 261.177 264.02 262.604L261.076 271.882L257.579 313.666Z" fill="#6C63FF"/>
<path d="M168.179 368.808V208.34C168.183 203.111 169.761 198.097 172.566 194.4C175.37 190.703 179.173 188.623 183.14 188.617H187.278C191.244 188.623 195.047 190.703 197.852 194.4C200.657 198.097 202.235 203.111 202.239 208.34V368.808C202.235 374.037 200.657 379.051 197.852 382.748C195.047 386.446 191.244 388.525 187.278 388.531H183.14C179.173 388.525 175.37 386.446 172.566 382.748C169.761 379.051 168.183 374.037 168.179 368.808Z" fill="#3F3D56"/>
<path d="M327.934 224.356C327.506 225.061 327.121 225.81 326.783 226.596L265.541 232.491L257.141 216.239L236.879 229.744L249.628 260.419C250.658 262.897 252.27 264.868 254.222 266.036C256.173 267.204 258.36 267.505 260.453 266.895L328.666 247.016C330.495 249.524 332.861 251.238 335.447 251.93C338.034 252.623 340.719 252.261 343.146 250.892C345.572 249.524 347.625 247.214 349.032 244.27C350.438 241.325 351.131 237.886 351.019 234.41C350.907 230.934 349.994 227.585 348.403 224.809C346.812 222.033 344.617 219.962 342.111 218.871C339.605 217.779 336.906 217.719 334.374 218.699C331.841 219.679 329.595 221.652 327.934 224.356Z" fill="#FFB6B6"/>
<path d="M263.48 232.852L238.445 249.792C237.732 250.274 236.95 250.548 236.15 250.595C235.35 250.642 234.552 250.462 233.809 250.066C233.067 249.67 232.399 249.067 231.849 248.3C231.299 247.532 230.882 246.618 230.624 245.618L221.609 210.595C219.76 205.787 219.431 200.21 220.694 195.083C221.956 189.956 224.708 185.697 228.346 183.237C217.248 190.747 240.361 169.416 249.183 192.072L265.466 222.042C265.932 222.901 266.253 223.881 266.405 224.917C266.558 225.954 266.539 227.021 266.351 228.047C266.162 229.073 265.808 230.033 265.313 230.862C264.817 231.691 264.192 232.37 263.48 232.852H263.48Z" fill="#6C63FF"/>
<path d="M226.622 139.429C224.81 139.429 222.81 138.278 220.556 135.945C213.923 129.079 209.182 119.534 207.06 108.775C204.938 98.015 205.553 86.6347 208.809 76.3795C210.448 71.2187 213.513 64.2042 218.809 60.0933C222.616 57.1396 227.088 56.0725 230.981 55.3041C234.351 54.6384 237.763 54.1083 241.123 53.7309C245.137 53.2783 249.775 52.9728 254.004 55.0909C257.103 56.6436 259.74 59.3854 262.291 62.037C263.18 62.9604 264.099 63.9169 265.02 64.8015C267.251 67.0959 269.825 68.7434 272.572 69.6363C273.152 69.7948 273.699 70.1154 274.176 70.5766C274.654 71.0378 275.051 71.6288 275.34 72.3096C275.636 73.0017 275.815 73.7692 275.866 74.5604C275.917 75.3516 275.839 76.1481 275.636 76.8959C275.238 78.3665 274.879 79.6923 275.606 81.1288C275.875 81.6348 276.234 82.0461 276.652 82.3267C277.069 82.6074 277.533 82.7487 278.002 82.7385C278.249 82.7331 278.494 82.8094 278.713 82.9603C278.932 83.1112 279.12 83.332 279.258 83.6026C279.398 83.8708 279.486 84.1801 279.515 84.5037C279.544 84.8272 279.512 85.155 279.422 85.4585L279.306 85.8541C279.617 85.8924 279.917 86.03 280.18 86.255C280.442 86.48 280.659 86.7857 280.812 87.1457C281.039 87.6584 281.127 88.2581 281.061 88.8455C280.995 89.4329 280.778 89.973 280.448 90.3765C277.761 93.7475 274.412 96.0584 270.78 97.0468C268.294 97.6895 265.737 97.6818 263.254 97.024L262.854 96.9213L262.903 96.3377C252.858 91.6146 243.79 99.63 238.62 108.793L237.873 108.172C238.002 107.831 238.076 107.458 238.093 107.078C238.109 106.698 238.067 106.317 237.968 105.958C237.864 105.528 237.697 105.129 237.476 104.785C237.255 104.44 236.984 104.156 236.68 103.95C236.064 103.615 235.387 103.528 234.734 103.7C234.081 103.871 233.481 104.294 233.01 104.915C232.53 105.578 232.16 106.365 231.924 107.226C231.688 108.088 231.59 109.005 231.637 109.919C231.773 111.856 232.148 113.75 232.746 115.529C232.989 116.379 233.24 117.259 233.444 118.146C234.589 123.185 234.284 128.602 232.588 133.363C231.805 135.535 230.39 138.304 228.093 139.162C227.614 139.34 227.119 139.43 226.622 139.429Z" fill="#2F2E41"/>
<path d="M715.946 540H1.05477C0.775652 539.999 0.508252 539.852 0.311173 539.591C0.114095 539.331 0.00341797 538.978 0.00341797 538.61C0.00341797 538.242 0.114095 537.889 0.311173 537.629C0.508252 537.368 0.775652 537.221 1.05477 537.22H715.946C716.226 537.22 716.494 537.366 716.692 537.627C716.889 537.888 717 538.241 717 538.61C717 538.979 716.889 539.332 716.692 539.593C716.494 539.854 716.226 540 715.946 540Z" fill="#CACACA"/>
</g>
<defs>
<clipPath id="clip0_160_75">
<rect width="717" height="540" fill="white"/>
</clipPath>
</defs>
</svg>
