<svg width="20" height="20" viewBox="0 0 20 20" fill="none" xmlns="http://www.w3.org/2000/svg">
<g opacity="0.6">
<path d="M17.2583 15.5917C17.336 15.514 17.3977 15.4217 17.4397 15.3202C17.4818 15.2187 17.5034 15.1099 17.5034 15C17.5034 14.7781 17.4153 14.5653 17.2583 14.4083C17.1014 14.2514 16.8886 14.1633 16.6667 14.1633C16.4448 14.1633 16.2319 14.2514 16.075 14.4083L15 15.4917L15 2.50001C15 2.27899 14.9122 2.06703 14.7559 1.91075C14.5997 1.75447 14.3877 1.66667 14.1667 1.66667C13.9457 1.66667 13.7337 1.75447 13.5774 1.91075C13.4211 2.06703 13.3333 2.27899 13.3333 2.50001L13.3333 15.4917L12.2583 14.4083C12.1809 14.3302 12.0887 14.2682 11.9872 14.2259C11.8856 14.1836 11.7767 14.1618 11.6667 14.1618C11.5567 14.1618 11.4477 14.1836 11.3462 14.2259C11.2446 14.2682 11.1525 14.3302 11.075 14.4083C10.9969 14.4858 10.9349 14.578 10.8926 14.6795C10.8503 14.7811 10.8285 14.89 10.8285 15C10.8285 15.11 10.8503 15.2189 10.8926 15.3205C10.9349 15.422 10.9969 15.5142 11.075 15.5917L13.575 18.0917C13.6525 18.1698 13.7446 18.2318 13.8462 18.2741C13.9477 18.3164 14.0567 18.3382 14.1667 18.3382C14.2767 18.3382 14.3856 18.3164 14.4872 18.2741C14.5887 18.2318 14.6809 18.1698 14.7583 18.0917L17.2583 15.5917Z" fill="white"/>
<path d="M6.66676 17.5L6.66676 4.50833L7.74176 5.59167C7.89868 5.74859 8.1115 5.83674 8.33342 5.83674C8.55534 5.83674 8.76817 5.74859 8.92509 5.59167C9.08201 5.43475 9.17017 5.22192 9.17017 5C9.17017 4.77808 9.08201 4.56525 8.92509 4.40833L6.42509 1.90833C6.34762 1.83023 6.25545 1.76823 6.1539 1.72592C6.05235 1.68362 5.94343 1.66183 5.83342 1.66183C5.72341 1.66183 5.61449 1.68362 5.51294 1.72592C5.41139 1.76823 5.31923 1.83023 5.24176 1.90833L2.74176 4.40833C2.66365 4.4858 2.60165 4.57797 2.55935 4.67952C2.51704 4.78107 2.49526 4.88999 2.49526 5C2.49526 5.11001 2.51704 5.21893 2.55935 5.32048C2.60165 5.42203 2.66365 5.5142 2.74176 5.59167C2.81923 5.66977 2.91139 5.73177 3.01294 5.77408C3.11449 5.81638 3.22341 5.83816 3.33342 5.83816C3.44343 5.83816 3.55235 5.81638 3.6539 5.77408C3.75545 5.73177 3.84762 5.66977 3.92509 5.59167L5.00009 4.50833L5.00009 17.5C5.00009 17.721 5.08789 17.933 5.24417 18.0893C5.40045 18.2455 5.61241 18.3333 5.83342 18.3333C6.05444 18.3333 6.2664 18.2455 6.42268 18.0893C6.57896 17.933 6.66676 17.721 6.66676 17.5Z" fill="white"/>
</g>
</svg>
